<?xml version="1.0" standalone="no"?><!DOCTYPE svg PUBLIC "-//W3C//DTD SVG 1.1//EN" "http://www.w3.org/Graphics/SVG/1.1/DTD/svg11.dtd"><svg class="icon" width="200px" height="180.60px" viewBox="0 0 1134 1024" version="1.1" xmlns="http://www.w3.org/2000/svg"><path d="M986.471784 668.256865l-282.015135 335.982703L12.038919 604.492108l150.002162-412.229189a92.049297 92.049297 0 0 1-21.780757-117.372541 92.243027 92.243027 0 1 1 159.799352 92.243027 91.495784 91.495784 0 0 1-48.653838 40.212757l98.857513 173.830919 282.928433-186.810811a122.630919 122.630919 0 0 1 2.905946-117.289513 123.018378 123.018378 0 0 1 213.047351 123.018378 122.630919 122.630919 0 0 1-100.102919 61.163243l-20.313946 338.445838 199.956757-1.328432a91.468108 91.468108 0 0 1 10.516757-62.242595 92.243027 92.243027 0 1 1 159.771675 92.270703 92.049297 92.049297 0 0 1-112.501621 39.852973z" fill="#1296db" /></svg>