<?xml version="1.0" standalone="no"?><!DOCTYPE svg PUBLIC "-//W3C//DTD SVG 1.1//EN" "http://www.w3.org/Graphics/SVG/1.1/DTD/svg11.dtd"><svg class="icon" width="200px" height="200.00px" viewBox="0 0 1024 1024" version="1.1" xmlns="http://www.w3.org/2000/svg"><path d="M512 0C229.2736 0 0 229.2736 0 512s229.2736 512 512 512 512-229.2736 512-512S794.7264 0 512 0zM837.8368 837.8368c-42.2912 42.2912-91.648 75.5712-146.5344 98.816C634.5728 960.6144 574.2592 972.8 512 972.8s-122.5728-12.1856-179.3024-36.1472c-54.8864-23.2448-104.1408-56.4224-146.5344-98.816-42.2912-42.2912-75.5712-91.648-98.816-146.5344C63.3856 634.5728 51.2 574.2592 51.2 512c0-62.2592 12.1856-122.5728 36.1472-179.3024 23.2448-54.8864 56.4224-104.1408 98.816-146.5344 42.2912-42.2912 91.648-75.5712 146.5344-98.816C389.4272 63.3856 449.7408 51.2 512 51.2s122.5728 12.1856 179.3024 36.1472c54.8864 23.2448 104.1408 56.4224 146.5344 98.816 42.2912 42.2912 75.5712 91.648 98.816 146.5344C960.6144 389.4272 972.8 449.7408 972.8 512c0 62.2592-12.1856 122.5728-36.1472 179.3024C913.408 746.1888 880.128 795.5456 837.8368 837.8368z"  /><path d="M737.6896 640.7168c-12.9024-5.7344-28.0576 0.2048-33.792 13.1072-24.4736 55.6032-93.2864 111.616-192 111.616-92.8768 0-164.6592-57.6512-192.2048-111.2064-6.4512-12.5952-21.9136-17.5104-34.5088-11.0592-12.5952 6.4512-17.5104 21.9136-11.0592 34.5088 18.7392 36.5568 50.7904 70.5536 90.112 95.5392 44.6464 28.4672 95.744 43.4176 147.5584 43.4176 53.6576 0 104.8576-14.1312 148.0704-40.7552 40.8576-25.1904 73.0112-61.2352 90.7264-101.376C756.5312 661.504 750.6944 646.3488 737.6896 640.7168z"  /><path d="M358.912 509.7472 358.912 509.7472c28.16 0 51.2-23.04 51.2-51.2L410.112 407.552c0-28.16-23.04-51.2-51.2-51.2l0 0c-28.16 0-51.2 23.04-51.2 51.2l0 50.9952C307.712 486.7072 330.752 509.7472 358.912 509.7472z"  /><path d="M666.112 509.7472 666.112 509.7472c28.16 0 51.2-23.04 51.2-51.2L717.312 407.552c0-28.16-23.04-51.2-51.2-51.2l0 0c-28.16 0-51.2 23.04-51.2 51.2l0 50.9952C614.912 486.7072 637.952 509.7472 666.112 509.7472z"  /></svg>